# This file uses centimeters as units for non-parametric coordinates.

g default
v 0.003204 0.001850 -0.039000
v 0.001850 0.003204 -0.039000
v 0.000000 0.003700 -0.039000
v -0.001850 0.003204 -0.039000
v -0.003204 0.001850 -0.039000
v -0.003700 0.000000 -0.039000
v -0.003204 -0.001850 -0.039000
v -0.001850 -0.003204 -0.039000
v 0.000000 -0.003700 -0.039000
v 0.001850 -0.003204 -0.039000
v 0.003204 -0.001850 -0.039000
v 0.003700 0.000000 -0.039000
v 0.004116 0.002376 -0.019500
v 0.002376 0.004116 -0.019500
v 0.000000 0.004753 -0.019500
v -0.002376 0.004116 -0.019500
v -0.004116 0.002376 -0.019500
v -0.004753 0.000000 -0.019500
v -0.004116 -0.002376 -0.019500
v -0.002376 -0.004116 -0.019500
v 0.000000 -0.004753 -0.019500
v 0.002376 -0.004116 -0.019500
v 0.004116 -0.002376 -0.019500
v 0.004753 0.000000 -0.019500
v 0.004105 0.002370 0.000000
v 0.002370 0.004105 0.000000
v 0.000000 0.004740 0.000000
v -0.002370 0.004105 0.000000
v -0.004105 0.002370 0.000000
v -0.004740 0.000000 0.000000
v -0.004105 -0.002370 0.000000
v -0.002370 -0.004105 0.000000
v 0.000000 -0.004740 0.000000
v 0.002370 -0.004105 0.000000
v 0.004105 -0.002370 0.000000
v 0.004740 0.000000 0.000000
v 0.003204 0.001850 0.019500
v 0.001850 0.003204 0.019500
v 0.000000 0.003700 0.019500
v -0.001850 0.003204 0.019500
v -0.003204 0.001850 0.019500
v -0.003700 0.000000 0.019500
v -0.003204 -0.001850 0.019500
v -0.001850 -0.003204 0.019500
v 0.000000 -0.003700 0.019500
v 0.001850 -0.003204 0.019500
v 0.003204 -0.001850 0.019500
v 0.003700 0.000000 0.019500
v 0.001360 0.000785 0.039000
v 0.000785 0.001360 0.039000
v 0.000000 0.001571 0.039000
v -0.000785 0.001360 0.039000
v -0.001360 0.000785 0.039000
v -0.001571 0.000000 0.039000
v -0.001360 -0.000785 0.039000
v -0.000785 -0.001360 0.039000
v 0.000000 -0.001571 0.039000
v 0.000785 -0.001360 0.039000
v 0.001360 -0.000785 0.039000
v 0.001571 0.000000 0.039000
v 0.000000 0.000000 -0.039000
v 0.000000 0.000000 0.039000
vt 0.635316 0.078125
vt 0.578125 0.020934
vt 0.500000 0.000000
vt 0.421875 0.020934
vt 0.364684 0.078125
vt 0.343750 0.156250
vt 0.364684 0.234375
vt 0.421875 0.291566
vt 0.500000 0.312500
vt 0.578125 0.291566
vt 0.635316 0.234375
vt 0.656250 0.156250
vt 0.375000 0.312500
vt 0.395833 0.312500
vt 0.416667 0.312500
vt 0.437500 0.312500
vt 0.458333 0.312500
vt 0.479167 0.312500
vt 0.500000 0.312500
vt 0.520833 0.312500
vt 0.541667 0.312500
vt 0.562500 0.312500
vt 0.583333 0.312500
vt 0.604167 0.312500
vt 0.625000 0.312500
vt 0.375000 0.406250
vt 0.395833 0.406250
vt 0.416667 0.406250
vt 0.437500 0.406250
vt 0.458333 0.406250
vt 0.479167 0.406250
vt 0.500000 0.406250
vt 0.520833 0.406250
vt 0.541667 0.406250
vt 0.562500 0.406250
vt 0.583333 0.406250
vt 0.604167 0.406250
vt 0.625000 0.406250
vt 0.375000 0.500000
vt 0.395833 0.500000
vt 0.416667 0.500000
vt 0.437500 0.500000
vt 0.458333 0.500000
vt 0.479167 0.500000
vt 0.500000 0.500000
vt 0.520833 0.500000
vt 0.541667 0.500000
vt 0.562500 0.500000
vt 0.583333 0.500000
vt 0.604167 0.500000
vt 0.625000 0.500000
vt 0.375000 0.593750
vt 0.395833 0.593750
vt 0.416667 0.593750
vt 0.437500 0.593750
vt 0.458333 0.593750
vt 0.479167 0.593750
vt 0.500000 0.593750
vt 0.520833 0.593750
vt 0.541667 0.593750
vt 0.562500 0.593750
vt 0.583333 0.593750
vt 0.604167 0.593750
vt 0.625000 0.593750
vt 0.375000 0.687500
vt 0.395833 0.687500
vt 0.416667 0.687500
vt 0.437500 0.687500
vt 0.458333 0.687500
vt 0.479167 0.687500
vt 0.500000 0.687500
vt 0.520833 0.687500
vt 0.541667 0.687500
vt 0.562500 0.687500
vt 0.583333 0.687500
vt 0.604167 0.687500
vt 0.625000 0.687500
vt 0.635316 0.765625
vt 0.578125 0.708434
vt 0.500000 0.687500
vt 0.421875 0.708434
vt 0.364684 0.765625
vt 0.343750 0.843750
vt 0.364684 0.921875
vt 0.421875 0.979066
vt 0.500000 1.000000
vt 0.578125 0.979066
vt 0.635316 0.921875
vt 0.656250 0.843750
vt 0.500000 0.156250
vt 0.500000 0.843750
vn 0.706148 0.706148 -0.052065
vn 0.706148 0.706148 -0.052065
vn 0.706878 0.706878 -0.025437
vn 0.706874 0.706875 -0.025624
vn 0.258468 0.964616 -0.052065
vn 0.258468 0.964616 -0.052065
vn 0.258735 0.965613 -0.025437
vn 0.258734 0.965609 -0.025624
vn -0.258468 0.964616 -0.052065
vn -0.258468 0.964616 -0.052065
vn -0.258735 0.965613 -0.025437
vn -0.258734 0.965609 -0.025624
vn -0.706148 0.706148 -0.052065
vn -0.706148 0.706148 -0.052065
vn -0.706878 0.706878 -0.025437
vn -0.706875 0.706875 -0.025624
vn -0.964616 0.258468 -0.052065
vn -0.964616 0.258468 -0.052065
vn -0.965613 0.258735 -0.025437
vn -0.965609 0.258734 -0.025624
vn -0.964616 -0.258468 -0.052065
vn -0.964616 -0.258468 -0.052065
vn -0.965613 -0.258735 -0.025437
vn -0.965609 -0.258734 -0.025624
vn -0.706148 -0.706148 -0.052065
vn -0.706148 -0.706148 -0.052065
vn -0.706878 -0.706878 -0.025437
vn -0.706874 -0.706875 -0.025624
vn -0.258468 -0.964616 -0.052065
vn -0.258468 -0.964616 -0.052065
vn -0.258735 -0.965613 -0.025437
vn -0.258734 -0.965609 -0.025624
vn 0.258468 -0.964616 -0.052065
vn 0.258468 -0.964616 -0.052065
vn 0.258735 -0.965613 -0.025437
vn 0.258734 -0.965609 -0.025624
vn 0.706148 -0.706148 -0.052065
vn 0.706148 -0.706148 -0.052065
vn 0.706878 -0.706878 -0.025437
vn 0.706875 -0.706875 -0.025624
vn 0.964616 -0.258468 -0.052065
vn 0.964616 -0.258468 -0.052065
vn 0.965613 -0.258735 -0.025437
vn 0.965609 -0.258734 -0.025624
vn 0.964616 0.258468 -0.052065
vn 0.964616 0.258468 -0.052065
vn 0.965613 0.258735 -0.025437
vn 0.965609 0.258734 -0.025624
vn 0.706869 0.706869 0.025943
vn 0.706872 0.706872 0.025770
vn 0.258732 0.965601 0.025943
vn 0.258733 0.965605 0.025770
vn -0.258732 0.965601 0.025943
vn -0.258733 0.965605 0.025770
vn -0.706869 0.706869 0.025943
vn -0.706872 0.706872 0.025770
vn -0.965601 0.258732 0.025943
vn -0.965605 0.258733 0.025770
vn -0.965601 -0.258732 0.025943
vn -0.965605 -0.258733 0.025770
vn -0.706869 -0.706869 0.025943
vn -0.706872 -0.706872 0.025770
vn -0.258732 -0.965601 0.025943
vn -0.258733 -0.965605 0.025770
vn 0.258732 -0.965601 0.025943
vn 0.258733 -0.965605 0.025770
vn 0.706869 -0.706869 0.025943
vn 0.706872 -0.706872 0.025770
vn 0.965601 -0.258732 0.025943
vn 0.965605 -0.258733 0.025770
vn 0.965601 0.258732 0.025943
vn 0.965605 0.258733 0.025770
vn 0.704975 0.704975 0.077586
vn 0.704971 0.704971 0.077671
vn 0.258039 0.963014 0.077586
vn 0.258037 0.963008 0.077671
vn -0.258039 0.963014 0.077586
vn -0.258037 0.963008 0.077671
vn -0.704975 0.704975 0.077586
vn -0.704971 0.704971 0.077671
vn -0.963014 0.258039 0.077586
vn -0.963008 0.258037 0.077671
vn -0.963014 -0.258039 0.077586
vn -0.963008 -0.258037 0.077671
vn -0.704975 -0.704975 0.077586
vn -0.704971 -0.704971 0.077671
vn -0.258039 -0.963014 0.077586
vn -0.258037 -0.963008 0.077671
vn 0.258039 -0.963014 0.077586
vn 0.258037 -0.963008 0.077671
vn 0.704975 -0.704975 0.077586
vn 0.704971 -0.704971 0.077671
vn 0.963014 -0.258039 0.077586
vn 0.963008 -0.258037 0.077671
vn 0.963014 0.258039 0.077586
vn 0.963008 0.258037 0.077671
vn 0.703206 0.703207 0.104881
vn 0.703207 0.703207 0.104881
vn 0.257392 0.960599 0.104881
vn 0.257392 0.960599 0.104881
vn -0.257392 0.960599 0.104881
vn -0.257392 0.960599 0.104881
vn -0.703207 0.703207 0.104881
vn -0.703207 0.703207 0.104881
vn -0.960599 0.257391 0.104881
vn -0.960599 0.257391 0.104881
vn -0.960599 -0.257392 0.104881
vn -0.960599 -0.257392 0.104881
vn -0.703206 -0.703207 0.104881
vn -0.703207 -0.703207 0.104881
vn -0.257392 -0.960599 0.104881
vn -0.257392 -0.960599 0.104881
vn 0.257392 -0.960599 0.104881
vn 0.257392 -0.960599 0.104881
vn 0.703207 -0.703207 0.104881
vn 0.703207 -0.703207 0.104881
vn 0.960599 -0.257391 0.104881
vn 0.960599 -0.257391 0.104881
vn 0.960599 0.257392 0.104881
vn 0.960599 0.257392 0.104881
vn 0.000000 0.000000 -1.000000
vn 0.000000 0.000000 -1.000000
vn 0.000000 0.000000 -1.000000
vn 0.000000 0.000000 -1.000000
vn 0.000001 0.000000 -1.000000
vn 0.000001 0.000000 -1.000000
vn 0.000000 0.000000 -1.000000
vn 0.000000 0.000000 -1.000000
vn 0.000000 0.000000 -1.000000
vn 0.000000 0.000000 -1.000000
vn -0.000001 0.000000 -1.000000
vn -0.000001 0.000000 -1.000000
vn 0.000000 0.000000 -1.000000
vn 0.000003 0.000000 1.000000
vn 0.000000 0.000000 1.000000
vn 0.000000 0.000000 1.000000
vn -0.000003 0.000000 1.000000
vn 0.000000 0.000000 1.000000
vn 0.000000 0.000000 1.000000
vn 0.000000 0.000000 1.000000
vn -0.000003 0.000000 1.000000
vn -0.000000 0.000000 1.000000
vn 0.000003 0.000000 1.000000
vn 0.000000 0.000000 1.000000
vn 0.000000 0.000000 1.000000
vn 0.000000 0.000000 1.000000
g pCylinder1
f 1/13/1 2/14/2 13/26/3
f 13/26/3 2/14/2 14/27/4
f 2/14/5 3/15/6 14/27/7
f 14/27/7 3/15/6 15/28/8
f 3/15/9 4/16/10 15/28/11
f 15/28/11 4/16/10 16/29/12
f 4/16/13 5/17/14 16/29/15
f 16/29/15 5/17/14 17/30/16
f 5/17/17 6/18/18 17/30/19
f 17/30/19 6/18/18 18/31/20
f 6/18/21 7/19/22 18/31/23
f 18/31/23 7/19/22 19/32/24
f 7/19/25 8/20/26 19/32/27
f 19/32/27 8/20/26 20/33/28
f 8/20/29 9/21/30 20/33/31
f 20/33/31 9/21/30 21/34/32
f 9/21/33 10/22/34 21/34/35
f 21/34/35 10/22/34 22/35/36
f 10/22/37 11/23/38 22/35/39
f 22/35/39 11/23/38 23/36/40
f 11/23/41 12/24/42 23/36/43
f 23/36/43 12/24/42 24/37/44
f 12/24/45 1/25/46 24/37/47
f 24/37/47 1/25/46 13/38/48
f 13/26/3 14/27/4 25/39/49
f 25/39/49 14/27/4 26/40/50
f 14/27/7 15/28/8 26/40/51
f 26/40/51 15/28/8 27/41/52
f 15/28/11 16/29/12 27/41/53
f 27/41/53 16/29/12 28/42/54
f 16/29/15 17/30/16 28/42/55
f 28/42/55 17/30/16 29/43/56
f 17/30/19 18/31/20 29/43/57
f 29/43/57 18/31/20 30/44/58
f 18/31/23 19/32/24 30/44/59
f 30/44/59 19/32/24 31/45/60
f 19/32/27 20/33/28 31/45/61
f 31/45/61 20/33/28 32/46/62
f 20/33/31 21/34/32 32/46/63
f 32/46/63 21/34/32 33/47/64
f 21/34/35 22/35/36 33/47/65
f 33/47/65 22/35/36 34/48/66
f 22/35/39 23/36/40 34/48/67
f 34/48/67 23/36/40 35/49/68
f 23/36/43 24/37/44 35/49/69
f 35/49/69 24/37/44 36/50/70
f 24/37/47 13/38/48 36/50/71
f 36/50/71 13/38/48 25/51/72
f 25/39/49 26/40/50 37/52/73
f 37/52/73 26/40/50 38/53/74
f 26/40/51 27/41/52 38/53/75
f 38/53/75 27/41/52 39/54/76
f 27/41/53 28/42/54 39/54/77
f 39/54/77 28/42/54 40/55/78
f 28/42/55 29/43/56 40/55/79
f 40/55/79 29/43/56 41/56/80
f 29/43/57 30/44/58 41/56/81
f 41/56/81 30/44/58 42/57/82
f 30/44/59 31/45/60 42/57/83
f 42/57/83 31/45/60 43/58/84
f 31/45/61 32/46/62 43/58/85
f 43/58/85 32/46/62 44/59/86
f 32/46/63 33/47/64 44/59/87
f 44/59/87 33/47/64 45/60/88
f 33/47/65 34/48/66 45/60/89
f 45/60/89 34/48/66 46/61/90
f 34/48/67 35/49/68 46/61/91
f 46/61/91 35/49/68 47/62/92
f 35/49/69 36/50/70 47/62/93
f 47/62/93 36/50/70 48/63/94
f 36/50/71 25/51/72 48/63/95
f 48/63/95 25/51/72 37/64/96
f 37/52/73 38/53/74 49/65/97
f 49/65/97 38/53/74 50/66/98
f 38/53/75 39/54/76 50/66/99
f 50/66/99 39/54/76 51/67/100
f 39/54/77 40/55/78 51/67/101
f 51/67/101 40/55/78 52/68/102
f 40/55/79 41/56/80 52/68/103
f 52/68/103 41/56/80 53/69/104
f 41/56/81 42/57/82 53/69/105
f 53/69/105 42/57/82 54/70/106
f 42/57/83 43/58/84 54/70/107
f 54/70/107 43/58/84 55/71/108
f 43/58/85 44/59/86 55/71/109
f 55/71/109 44/59/86 56/72/110
f 44/59/87 45/60/88 56/72/111
f 56/72/111 45/60/88 57/73/112
f 45/60/89 46/61/90 57/73/113
f 57/73/113 46/61/90 58/74/114
f 46/61/91 47/62/92 58/74/115
f 58/74/115 47/62/92 59/75/116
f 47/62/93 48/63/94 59/75/117
f 59/75/117 48/63/94 60/76/118
f 48/63/95 37/64/96 60/76/119
f 60/76/119 37/64/96 49/77/120
f 2/2/121 1/1/122 61/90/123
f 3/3/124 2/2/121 61/90/123
f 4/4/125 3/3/124 61/90/123
f 5/5/126 4/4/125 61/90/123
f 6/6/127 5/5/126 61/90/123
f 7/7/128 6/6/127 61/90/123
f 8/8/129 7/7/128 61/90/123
f 9/9/130 8/8/129 61/90/123
f 10/10/131 9/9/130 61/90/123
f 11/11/132 10/10/131 61/90/123
f 12/12/133 11/11/132 61/90/123
f 1/1/122 12/12/133 61/90/123
f 49/88/134 50/87/135 62/91/136
f 50/87/135 51/86/137 62/91/136
f 51/86/137 52/85/138 62/91/136
f 52/85/138 53/84/139 62/91/136
f 53/84/139 54/83/140 62/91/136
f 54/83/140 55/82/141 62/91/136
f 55/82/141 56/81/142 62/91/136
f 56/81/142 57/80/143 62/91/136
f 57/80/143 58/79/144 62/91/136
f 58/79/144 59/78/145 62/91/136
f 59/78/145 60/89/146 62/91/136
f 60/89/146 49/88/134 62/91/136
